<svg width="1144.7" height="100.8" viewBox="0 0 1144.7 100.8" xmlns="http://www.w3.org/2000/svg"><g id="svgGroup" stroke-linecap="round" fill-rule="evenodd" font-size="9pt" stroke="#000" stroke-width="0.25mm" fill="none" style="stroke:#000;stroke-width:0.25mm;fill:none"><path d="M 864.4 81.3 L 863.6 81.3 L 836.7 31.2 L 815.3 81.3 L 814.2 81.3 L 791.1 4 L 809.2 0 L 818.7 51.7 L 832.6 12.4 L 846.3 10.2 L 859.5 49.1 L 883.6 1.1 L 885.1 1.1 L 864.4 81.3 Z M 430.4 80 L 418.5 80 L 416.9 45.7 A 39.056 39.056 0 0 0 416.669 42.922 Q 416.335 40.188 415.629 38.47 A 7.301 7.301 0 0 0 415 37.25 A 5.117 5.117 0 0 0 411.321 34.872 A 6.965 6.965 0 0 0 410.3 34.8 Q 408.393 34.8 406.142 35.762 A 17.451 17.451 0 0 0 405.2 36.2 A 25.804 25.804 0 0 0 401.483 38.488 A 31.306 31.306 0 0 0 399.7 39.9 Q 399.6 40.3 399.6 40.7 L 399.6 41.6 L 398 80 L 386.6 80 L 385 45.7 Q 384.7 39.7 382.85 37.25 Q 381.06 34.879 378.099 34.803 A 7.695 7.695 0 0 0 377.9 34.8 A 8.89 8.89 0 0 0 375.804 35.067 Q 374.477 35.389 373 36.1 A 23.487 23.487 0 0 0 369.499 38.194 A 28.638 28.638 0 0 0 367.7 39.6 L 366.2 80 L 354.4 80 L 351.8 24.3 L 368.3 24.3 L 367.9 33.7 A 32.781 32.781 0 0 1 373.549 28.272 A 28.089 28.089 0 0 1 377.6 25.75 Q 383 23 388.2 23 A 16.861 16.861 0 0 1 391.276 23.262 Q 392.978 23.578 394.305 24.276 A 7.984 7.984 0 0 1 396.3 25.75 A 9.082 9.082 0 0 1 398.074 28.425 Q 399.178 30.884 399.491 34.586 A 31.095 31.095 0 0 1 399.5 34.7 A 34.968 34.968 0 0 1 405.148 28.949 A 29.774 29.774 0 0 1 409.5 26.05 A 26.19 26.19 0 0 1 415.032 23.774 A 20.789 20.789 0 0 1 420.6 23 A 16.587 16.587 0 0 1 423.807 23.289 Q 425.669 23.656 427.076 24.491 A 7.855 7.855 0 0 1 429.45 26.65 A 10.98 10.98 0 0 1 430.904 29.546 Q 432.1 33.023 432.1 38.6 Q 432.1 39.3 432.05 40.05 A 23.04 23.04 0 0 0 432.001 41.401 A 25.303 25.303 0 0 0 432 41.6 L 430.4 80 Z M 523.8 80 L 511.9 80 L 510.3 45.7 A 39.056 39.056 0 0 0 510.069 42.922 Q 509.735 40.188 509.029 38.47 A 7.301 7.301 0 0 0 508.4 37.25 A 5.117 5.117 0 0 0 504.721 34.872 A 6.965 6.965 0 0 0 503.7 34.8 Q 501.793 34.8 499.542 35.762 A 17.451 17.451 0 0 0 498.6 36.2 A 25.804 25.804 0 0 0 494.883 38.488 A 31.306 31.306 0 0 0 493.1 39.9 Q 493 40.3 493 40.7 L 493 41.6 L 491.4 80 L 480 80 L 478.4 45.7 Q 478.1 39.7 476.25 37.25 Q 474.46 34.879 471.499 34.803 A 7.695 7.695 0 0 0 471.3 34.8 A 8.89 8.89 0 0 0 469.204 35.067 Q 467.877 35.389 466.4 36.1 A 23.487 23.487 0 0 0 462.899 38.194 A 28.638 28.638 0 0 0 461.1 39.6 L 459.6 80 L 447.8 80 L 445.2 24.3 L 461.7 24.3 L 461.3 33.7 A 32.781 32.781 0 0 1 466.949 28.272 A 28.089 28.089 0 0 1 471 25.75 Q 476.4 23 481.6 23 A 16.861 16.861 0 0 1 484.676 23.262 Q 486.378 23.578 487.705 24.276 A 7.984 7.984 0 0 1 489.7 25.75 A 9.082 9.082 0 0 1 491.474 28.425 Q 492.578 30.884 492.891 34.586 A 31.095 31.095 0 0 1 492.9 34.7 A 34.968 34.968 0 0 1 498.548 28.949 A 29.774 29.774 0 0 1 502.9 26.05 A 26.19 26.19 0 0 1 508.432 23.774 A 20.789 20.789 0 0 1 514 23 A 16.587 16.587 0 0 1 517.207 23.289 Q 519.069 23.656 520.476 24.491 A 7.855 7.855 0 0 1 522.85 26.65 A 10.98 10.98 0 0 1 524.304 29.546 Q 525.5 33.023 525.5 38.6 Q 525.5 39.3 525.45 40.05 A 23.04 23.04 0 0 0 525.401 41.401 A 25.303 25.303 0 0 0 525.4 41.6 L 523.8 80 Z M 1143 80 L 1130.6 80 L 1129 45.7 Q 1128.708 39.276 1127.327 37.068 A 4.096 4.096 0 0 0 1127.25 36.95 Q 1125.8 34.8 1122.7 34.8 A 13.038 13.038 0 0 0 1121.039 34.919 Q 1119.268 35.148 1116.84 35.821 A 55.737 55.737 0 0 0 1115.7 36.15 Q 1111.2 37.5 1107 40.2 L 1105.7 80 L 1093.4 80 L 1090.8 2 L 1108.3 2 L 1107.2 35.6 Q 1110.3 31.9 1114.4 29.05 Q 1118.5 26.2 1123.05 24.6 A 28.969 28.969 0 0 1 1128.058 23.306 A 23.546 23.546 0 0 1 1131.8 23 A 21.639 21.639 0 0 1 1135.348 23.269 Q 1139.996 24.044 1142 27.05 A 13.785 13.785 0 0 1 1143.672 30.686 Q 1144.217 32.468 1144.473 34.642 A 35.618 35.618 0 0 1 1144.7 38.8 A 17.877 17.877 0 0 1 1144.663 39.966 A 16.07 16.07 0 0 1 1144.65 40.15 Q 1144.6 40.8 1144.6 41.6 L 1143 80 Z M 207.4 89.3 L 209.4 89.3 A 26.769 26.769 0 0 0 211.692 89.209 Q 213.943 89.015 215.31 88.404 A 4.402 4.402 0 0 0 216.5 87.65 A 4.13 4.13 0 0 0 217.449 86.272 Q 218.067 84.894 218.236 82.63 A 24.649 24.649 0 0 0 218.3 80.8 Q 218.3 80.2 218.25 79.65 A 11.515 11.515 0 0 1 218.214 79.101 Q 218.202 78.813 218.2 78.492 A 19.192 19.192 0 0 1 218.2 78.4 L 217.8 69.3 A 29.368 29.368 0 0 1 211.971 73.224 A 36.719 36.719 0 0 1 208.35 74.85 Q 202.8 77 196.4 77 Q 187.9 77 182.95 72.55 A 13.403 13.403 0 0 1 179.397 67.181 Q 178.568 64.971 178.231 62.219 A 33.118 33.118 0 0 1 178 58.2 Q 178 50.4 182.4 43.95 A 36.407 36.407 0 0 1 189.883 35.99 A 45.928 45.928 0 0 1 194.45 32.8 A 60.055 60.055 0 0 1 206 27.357 A 73.223 73.223 0 0 1 211.95 25.55 Q 221.8 23 232.7 23 L 230.8 77.2 Q 230.51 85.892 228.961 90.993 A 24.52 24.52 0 0 1 228.85 91.35 Q 227.685 94.986 225.747 97.127 A 9.513 9.513 0 0 1 224 98.65 A 12.017 12.017 0 0 1 220.092 100.328 Q 218.144 100.8 215.8 100.8 A 24.795 24.795 0 0 1 213.621 100.701 A 27.98 27.98 0 0 1 213.1 100.65 A 110.238 110.238 0 0 1 210.944 100.397 A 122.732 122.732 0 0 1 210.2 100.3 A 45.45 45.45 0 0 1 204.313 99.044 Q 201.336 98.212 198.092 96.944 A 83.233 83.233 0 0 1 195.9 96.05 A 47.337 47.337 0 0 1 188.85 92.277 Q 184.202 89.295 179.3 84.9 L 179.8 84.1 A 45.404 45.404 0 0 0 181.987 84.843 Q 183.21 85.226 184.608 85.602 A 87.846 87.846 0 0 0 186.35 86.05 Q 190.2 87 194.3 87.7 Q 198.4 88.4 201.9 88.8 Q 205.4 89.2 207.4 89.3 Z M 346.1 71.4 L 346.5 72 A 116.696 116.696 0 0 1 343.221 74.958 Q 341.661 76.308 340.254 77.41 A 53.021 53.021 0 0 1 338.4 78.8 A 18.24 18.24 0 0 1 336.307 80.105 Q 335.207 80.684 334.185 80.982 A 7.429 7.429 0 0 1 332.1 81.3 A 5.245 5.245 0 0 1 328.765 80.1 A 7.182 7.182 0 0 1 328.15 79.55 A 9.537 9.537 0 0 1 327.002 78.132 Q 325.974 76.606 325.041 74.261 A 33.634 33.634 0 0 1 324.9 73.9 A 24.561 24.561 0 0 1 320.725 76.807 A 31.887 31.887 0 0 1 317.3 78.45 A 35.815 35.815 0 0 1 308.889 80.73 A 40.656 40.656 0 0 1 307.6 80.9 A 55.379 55.379 0 0 1 305.256 81.144 A 49.842 49.842 0 0 1 304.5 81.2 A 44.809 44.809 0 0 1 302.306 81.294 A 40.265 40.265 0 0 1 301.6 81.3 A 28.986 28.986 0 0 1 296.542 80.899 Q 287.5 79.288 287.5 71.2 Q 287.5 70 287.7 68.7 A 23.897 23.897 0 0 1 287.988 67.174 A 30.626 30.626 0 0 1 288.3 65.9 A 12.435 12.435 0 0 1 290.835 61.14 A 15.493 15.493 0 0 1 291.95 59.95 A 28.576 28.576 0 0 1 295.729 56.906 A 36.171 36.171 0 0 1 298.6 55.15 Q 302.5 53 306.6 51.15 Q 310.7 49.3 314.25 47.65 A 51.075 51.075 0 0 0 316.73 46.42 Q 318.644 45.4 320.05 44.4 A 9.084 9.084 0 0 0 321.028 43.606 Q 322.3 42.403 322.3 41.2 Q 322.3 37.994 321.716 36.301 A 4.153 4.153 0 0 0 321.2 35.25 A 3.189 3.189 0 0 0 319.824 34.177 Q 318.753 33.714 317.104 33.7 A 12.196 12.196 0 0 0 317 33.7 Q 314.84 33.7 310.366 34.086 A 219.925 219.925 0 0 0 310.2 34.1 Q 305.6 34.5 300.1 35.3 Q 294.6 36.1 289.6 37.4 L 289.1 36.4 A 27.412 27.412 0 0 1 291.759 34.163 Q 293.184 33.103 294.885 32.079 A 48.195 48.195 0 0 1 296.05 31.4 A 70.688 70.688 0 0 1 303.947 27.583 A 78.229 78.229 0 0 1 305.15 27.1 A 68.42 68.42 0 0 1 314.5 24.17 A 63.241 63.241 0 0 1 314.8 24.1 A 47.86 47.86 0 0 1 318.828 23.348 Q 320.958 23.049 322.877 23.007 A 28.424 28.424 0 0 1 323.5 23 A 49.252 49.252 0 0 1 326.738 23.099 Q 330.558 23.352 332.75 24.25 A 6.648 6.648 0 0 1 336.375 27.841 A 9.82 9.82 0 0 1 336.85 29.15 A 20.128 20.128 0 0 1 337.358 31.492 Q 337.9 34.853 337.9 40.1 L 337.9 65.4 Q 337.9 69 338.55 70.55 A 2.314 2.314 0 0 0 340.005 71.868 Q 340.453 72.024 341.019 72.075 A 6.465 6.465 0 0 0 341.6 72.1 Q 342.4 72.1 343.55 71.9 Q 344.7 71.7 346.1 71.4 Z M 594.2 71.4 L 594.6 72 A 116.696 116.696 0 0 1 591.321 74.958 Q 589.761 76.308 588.354 77.41 A 53.021 53.021 0 0 1 586.5 78.8 A 18.24 18.24 0 0 1 584.407 80.105 Q 583.307 80.684 582.285 80.982 A 7.429 7.429 0 0 1 580.2 81.3 A 5.245 5.245 0 0 1 576.865 80.1 A 7.182 7.182 0 0 1 576.25 79.55 A 9.537 9.537 0 0 1 575.102 78.132 Q 574.074 76.606 573.141 74.261 A 33.634 33.634 0 0 1 573 73.9 A 24.561 24.561 0 0 1 568.825 76.807 A 31.887 31.887 0 0 1 565.4 78.45 A 35.815 35.815 0 0 1 556.989 80.73 A 40.656 40.656 0 0 1 555.7 80.9 A 55.379 55.379 0 0 1 553.356 81.144 A 49.842 49.842 0 0 1 552.6 81.2 A 44.809 44.809 0 0 1 550.406 81.294 A 40.265 40.265 0 0 1 549.7 81.3 A 28.986 28.986 0 0 1 544.642 80.899 Q 535.6 79.288 535.6 71.2 Q 535.6 70 535.8 68.7 A 23.897 23.897 0 0 1 536.088 67.174 A 30.626 30.626 0 0 1 536.4 65.9 A 12.435 12.435 0 0 1 538.935 61.14 A 15.493 15.493 0 0 1 540.05 59.95 A 28.576 28.576 0 0 1 543.829 56.906 A 36.171 36.171 0 0 1 546.7 55.15 Q 550.6 53 554.7 51.15 Q 558.8 49.3 562.35 47.65 A 51.075 51.075 0 0 0 564.83 46.42 Q 566.744 45.4 568.15 44.4 A 9.084 9.084 0 0 0 569.128 43.606 Q 570.4 42.403 570.4 41.2 Q 570.4 37.994 569.816 36.301 A 4.153 4.153 0 0 0 569.3 35.25 A 3.189 3.189 0 0 0 567.924 34.177 Q 566.853 33.714 565.204 33.7 A 12.196 12.196 0 0 0 565.1 33.7 Q 562.94 33.7 558.466 34.086 A 219.925 219.925 0 0 0 558.3 34.1 Q 553.7 34.5 548.2 35.3 Q 542.7 36.1 537.7 37.4 L 537.2 36.4 A 27.412 27.412 0 0 1 539.859 34.163 Q 541.284 33.103 542.985 32.079 A 48.195 48.195 0 0 1 544.15 31.4 A 70.688 70.688 0 0 1 552.047 27.583 A 78.229 78.229 0 0 1 553.25 27.1 A 68.42 68.42 0 0 1 562.6 24.17 A 63.241 63.241 0 0 1 562.9 24.1 A 47.86 47.86 0 0 1 566.928 23.348 Q 569.058 23.049 570.977 23.007 A 28.424 28.424 0 0 1 571.6 23 A 49.252 49.252 0 0 1 574.838 23.099 Q 578.658 23.352 580.85 24.25 A 6.648 6.648 0 0 1 584.475 27.841 A 9.82 9.82 0 0 1 584.95 29.15 A 20.128 20.128 0 0 1 585.458 31.492 Q 586 34.853 586 40.1 L 586 65.4 Q 586 69 586.65 70.55 A 2.314 2.314 0 0 0 588.105 71.868 Q 588.553 72.024 589.119 72.075 A 6.465 6.465 0 0 0 589.7 72.1 Q 590.5 72.1 591.65 71.9 Q 592.8 71.7 594.2 71.4 Z M 1010.9 71.4 L 1011.3 72 A 116.696 116.696 0 0 1 1008.021 74.958 Q 1006.461 76.308 1005.054 77.41 A 53.021 53.021 0 0 1 1003.2 78.8 A 18.24 18.24 0 0 1 1001.107 80.105 Q 1000.007 80.684 998.985 80.982 A 7.429 7.429 0 0 1 996.9 81.3 A 5.245 5.245 0 0 1 993.565 80.1 A 7.182 7.182 0 0 1 992.95 79.55 A 9.537 9.537 0 0 1 991.802 78.132 Q 990.774 76.606 989.841 74.261 A 33.634 33.634 0 0 1 989.7 73.9 A 24.561 24.561 0 0 1 985.525 76.807 A 31.887 31.887 0 0 1 982.1 78.45 A 35.815 35.815 0 0 1 973.689 80.73 A 40.656 40.656 0 0 1 972.4 80.9 A 55.379 55.379 0 0 1 970.056 81.144 A 49.842 49.842 0 0 1 969.3 81.2 A 44.809 44.809 0 0 1 967.106 81.294 A 40.265 40.265 0 0 1 966.4 81.3 A 28.986 28.986 0 0 1 961.342 80.899 Q 952.3 79.288 952.3 71.2 Q 952.3 70 952.5 68.7 A 23.897 23.897 0 0 1 952.788 67.174 A 30.626 30.626 0 0 1 953.1 65.9 A 12.435 12.435 0 0 1 955.635 61.14 A 15.493 15.493 0 0 1 956.75 59.95 A 28.576 28.576 0 0 1 960.529 56.906 A 36.171 36.171 0 0 1 963.4 55.15 Q 967.3 53 971.4 51.15 Q 975.5 49.3 979.05 47.65 A 51.075 51.075 0 0 0 981.53 46.42 Q 983.444 45.4 984.85 44.4 A 9.084 9.084 0 0 0 985.828 43.606 Q 987.1 42.403 987.1 41.2 Q 987.1 37.994 986.516 36.301 A 4.153 4.153 0 0 0 986 35.25 A 3.189 3.189 0 0 0 984.624 34.177 Q 983.553 33.714 981.904 33.7 A 12.196 12.196 0 0 0 981.8 33.7 Q 979.64 33.7 975.166 34.086 A 219.925 219.925 0 0 0 975 34.1 Q 970.4 34.5 964.9 35.3 Q 959.4 36.1 954.4 37.4 L 953.9 36.4 A 27.412 27.412 0 0 1 956.559 34.163 Q 957.984 33.103 959.685 32.079 A 48.195 48.195 0 0 1 960.85 31.4 A 70.688 70.688 0 0 1 968.747 27.583 A 78.229 78.229 0 0 1 969.95 27.1 A 68.42 68.42 0 0 1 979.3 24.17 A 63.241 63.241 0 0 1 979.6 24.1 A 47.86 47.86 0 0 1 983.628 23.348 Q 985.758 23.049 987.677 23.007 A 28.424 28.424 0 0 1 988.3 23 A 49.252 49.252 0 0 1 991.538 23.099 Q 995.358 23.352 997.55 24.25 A 6.648 6.648 0 0 1 1001.175 27.841 A 9.82 9.82 0 0 1 1001.65 29.15 A 20.128 20.128 0 0 1 1002.158 31.492 Q 1002.7 34.853 1002.7 40.1 L 1002.7 65.4 Q 1002.7 69 1003.35 70.55 A 2.314 2.314 0 0 0 1004.805 71.868 Q 1005.253 72.024 1005.819 72.075 A 6.465 6.465 0 0 0 1006.4 72.1 Q 1007.2 72.1 1008.35 71.9 Q 1009.5 71.7 1010.9 71.4 Z M 604.1 81.3 L 600.7 2 L 618.2 2 L 617 32.5 A 37.583 37.583 0 0 1 621.091 29.228 A 44.496 44.496 0 0 1 623.2 27.85 Q 626.7 25.7 630.55 24.35 A 23.949 23.949 0 0 1 635.539 23.16 A 20.848 20.848 0 0 1 638.1 23 Q 645.533 23 649.997 26.582 A 14.321 14.321 0 0 1 652.25 28.85 A 19.467 19.467 0 0 1 655.549 35.273 Q 656.9 39.632 656.9 45.4 A 36.491 36.491 0 0 1 655.736 54.839 A 27.808 27.808 0 0 1 650.3 65.5 A 35.111 35.111 0 0 1 639.999 73.898 A 47.972 47.972 0 0 1 631.85 77.4 Q 620 81.3 604.1 81.3 Z M 16.5 80 L 3.7 80 L 0 2 L 18.2 2 L 18.1 5 Q 23.5 3.4 28.25 2.7 Q 33 2 37 2 A 45.172 45.172 0 0 1 42.861 2.359 Q 45.862 2.752 48.395 3.577 A 23.796 23.796 0 0 1 50.45 4.35 A 25.017 25.017 0 0 1 54.441 6.49 Q 56.672 7.98 58.214 9.834 A 14.996 14.996 0 0 1 58.7 10.45 A 14.034 14.034 0 0 1 61.02 15.068 A 13.01 13.01 0 0 1 61.5 18.6 Q 61.5 22.9 59.6 27.6 Q 57.819 32.007 53.444 36.061 A 36.21 36.21 0 0 1 52.85 36.6 A 30.098 30.098 0 0 1 48.282 39.896 Q 44.486 42.159 39.35 44 Q 33.065 46.252 24.22 47.449 A 133.037 133.037 0 0 1 17.2 48.2 L 16.5 80 Z M 750.3 80.1 L 749.9 81.3 A 280.551 280.551 0 0 1 739.278 81.111 Q 730.718 80.786 724.2 79.9 A 74.736 74.736 0 0 1 717.696 78.741 Q 711.861 77.413 707.9 75.3 A 22.898 22.898 0 0 1 703.301 72.117 A 17.6 17.6 0 0 1 699.3 66.9 Q 696.944 62.188 696.723 55.586 A 41.448 41.448 0 0 1 696.7 54.2 A 43.836 43.836 0 0 1 697.389 46.229 A 31.492 31.492 0 0 1 700.3 37.5 A 30.184 30.184 0 0 1 704.611 31.145 A 24.898 24.898 0 0 1 709.75 26.75 A 23.492 23.492 0 0 1 717.463 23.495 A 21.755 21.755 0 0 1 722.1 23 A 35.943 35.943 0 0 1 731.897 24.395 A 40.387 40.387 0 0 1 732.6 24.6 A 30.039 30.039 0 0 1 742.356 29.688 A 33.916 33.916 0 0 1 742.5 29.8 Q 747.1 33.4 750 39.25 Q 752.9 45.1 753.3 53.6 L 710.8 58.4 Q 711.7 63.9 715.85 67.75 A 22.798 22.798 0 0 0 719.382 70.394 Q 723.019 72.642 728.4 74.5 Q 736.8 77.4 750.3 80.1 Z M 944.4 80.1 L 944 81.3 A 280.551 280.551 0 0 1 933.378 81.111 Q 924.818 80.786 918.3 79.9 A 74.736 74.736 0 0 1 911.796 78.741 Q 905.961 77.413 902 75.3 A 22.898 22.898 0 0 1 897.401 72.117 A 17.6 17.6 0 0 1 893.4 66.9 Q 891.044 62.188 890.823 55.586 A 41.448 41.448 0 0 1 890.8 54.2 A 43.836 43.836 0 0 1 891.489 46.229 A 31.492 31.492 0 0 1 894.4 37.5 A 30.184 30.184 0 0 1 898.711 31.145 A 24.898 24.898 0 0 1 903.85 26.75 A 23.492 23.492 0 0 1 911.563 23.495 A 21.755 21.755 0 0 1 916.2 23 A 35.943 35.943 0 0 1 925.997 24.395 A 40.387 40.387 0 0 1 926.7 24.6 A 30.039 30.039 0 0 1 936.456 29.688 A 33.916 33.916 0 0 1 936.6 29.8 Q 941.2 33.4 944.1 39.25 Q 947 45.1 947.4 53.6 L 904.9 58.4 Q 905.8 63.9 909.95 67.75 A 22.798 22.798 0 0 0 913.482 70.394 Q 917.119 72.642 922.5 74.5 Q 930.9 77.4 944.4 80.1 Z M 1081.6 68.5 L 1082.1 69.5 A 68.706 68.706 0 0 1 1078.682 73.31 Q 1076.994 75.047 1075.397 76.389 A 28.981 28.981 0 0 1 1072.65 78.45 A 22.937 22.937 0 0 1 1070.014 79.953 Q 1068.566 80.648 1067.225 80.984 A 9.96 9.96 0 0 1 1064.8 81.3 Q 1060.4 81.3 1057.8 76.65 A 18.171 18.171 0 0 1 1056.284 72.963 Q 1055.173 69.232 1054.929 63.937 A 61.706 61.706 0 0 1 1054.9 63.2 L 1054 35.8 L 1043.3 35.8 L 1043.3 34.7 L 1068.5 6.9 L 1069.8 6.9 L 1068.9 26.1 L 1080.2 22.3 L 1080.2 35.8 L 1068.4 35.8 L 1067.2 61 A 17.877 17.877 0 0 1 1067.163 62.166 A 16.07 16.07 0 0 1 1067.15 62.35 A 17.363 17.363 0 0 0 1067.101 63.515 A 19.322 19.322 0 0 0 1067.1 63.7 A 28.102 28.102 0 0 0 1067.175 65.829 Q 1067.33 67.861 1067.806 69.17 A 5.946 5.946 0 0 0 1068.1 69.85 A 3.372 3.372 0 0 0 1070.511 71.693 A 5.235 5.235 0 0 0 1071.6 71.8 Q 1074.113 71.8 1078.599 69.886 A 61.133 61.133 0 0 0 1081.6 68.5 Z M 85.1 80 L 72.8 80 L 69.2 24.3 L 86.8 24.3 L 86.5 34.2 Q 88.8 31.2 92.1 28.65 Q 95.4 26.1 99.25 24.55 A 20.902 20.902 0 0 1 105.722 23.042 A 19.601 19.601 0 0 1 107 23 L 107 37.7 A 16.227 16.227 0 0 0 103.747 36.359 A 18.955 18.955 0 0 0 102.55 36.05 Q 100.1 35.5 97.5 35.5 Q 94.4 35.5 91.4 36.25 A 18.466 18.466 0 0 0 88.966 37.031 Q 87.705 37.54 86.686 38.206 A 10.992 10.992 0 0 0 86.4 38.4 L 85.1 80 Z M 262.2 80 L 249.9 80 L 246.3 24.3 L 263.9 24.3 L 263.6 34.2 Q 265.9 31.2 269.2 28.65 Q 272.5 26.1 276.35 24.55 A 20.902 20.902 0 0 1 282.822 23.042 A 19.601 19.601 0 0 1 284.1 23 L 284.1 37.7 A 16.227 16.227 0 0 0 280.847 36.359 A 18.955 18.955 0 0 0 279.65 36.05 Q 277.2 35.5 274.6 35.5 Q 271.5 35.5 268.5 36.25 A 18.466 18.466 0 0 0 266.066 37.031 Q 264.805 37.54 263.786 38.206 A 10.992 10.992 0 0 0 263.5 38.4 L 262.2 80 Z M 683.1 80 L 670.6 80 L 667.9 2 L 685.8 2 L 683.1 80 Z M 1032.9 80 L 1020.4 80 L 1017.7 2 L 1035.6 2 L 1032.9 80 Z M 168.797 59.78 A 27.828 27.828 0 0 0 169.8 52.2 A 30.936 30.936 0 0 0 169.731 50.117 A 25.827 25.827 0 0 0 167.1 40.2 Q 164.4 34.8 160 30.95 Q 155.6 27.1 150.5 25.05 A 30.92 30.92 0 0 0 147.264 23.947 A 24.775 24.775 0 0 0 140.6 23 A 23.772 23.772 0 0 0 136.304 23.399 A 29.122 29.122 0 0 0 130.7 25.05 A 31.763 31.763 0 0 0 128.81 25.882 A 34.501 34.501 0 0 0 121.15 30.95 Q 116.7 34.8 113.95 40.2 Q 111.2 45.6 111.2 52.2 A 30.227 30.227 0 0 0 111.281 54.432 A 25.075 25.075 0 0 0 113.95 64.15 Q 116.7 69.5 121.15 73.3 A 38.675 38.675 0 0 0 121.709 73.768 A 34.23 34.23 0 0 0 130.7 79.15 A 30.92 30.92 0 0 0 133.936 80.253 A 24.775 24.775 0 0 0 140.6 81.2 A 23.772 23.772 0 0 0 144.896 80.801 A 29.122 29.122 0 0 0 150.5 79.15 A 32.067 32.067 0 0 0 151.155 78.878 A 33.9 33.9 0 0 0 160 73.3 Q 164.4 69.5 167.1 64.15 A 24.314 24.314 0 0 0 168.797 59.78 Z M 616.8 36.6 L 615.2 76.6 A 73.145 73.145 0 0 0 622.022 73.988 Q 627.584 71.511 631.3 68.5 A 32.101 32.101 0 0 0 635.858 64.035 A 23.816 23.816 0 0 0 639.5 58.1 Q 641.9 52.4 641.9 46.2 A 31.99 31.99 0 0 0 641.738 42.856 Q 641.289 38.603 639.6 36.4 A 7.465 7.465 0 0 0 634.616 33.526 A 11.204 11.204 0 0 0 632.9 33.4 A 45.093 45.093 0 0 0 627.095 33.762 A 39.143 39.143 0 0 0 624.95 34.1 Q 621.317 34.778 617.074 36.489 A 57.981 57.981 0 0 0 616.8 36.6 Z M 143.6 74 A 11.587 11.587 0 0 0 147.082 73.504 A 8.879 8.879 0 0 0 151.7 70.15 Q 153.962 67.04 154.397 59.853 A 60.647 60.647 0 0 0 154.5 56.2 A 48.681 48.681 0 0 0 154.175 50.402 Q 153.809 47.358 153.031 44.808 A 23.139 23.139 0 0 0 151.75 41.5 Q 149.539 36.917 146.584 34.305 A 14.815 14.815 0 0 0 145.1 33.15 A 17.983 17.983 0 0 0 142.247 31.548 Q 140.534 30.795 138.883 30.583 A 10.072 10.072 0 0 0 137.6 30.5 Q 134.1 30.5 131.6 32.1 Q 129.491 33.45 128.236 36.402 A 16.087 16.087 0 0 0 127.8 37.55 Q 126.558 41.228 126.503 47.599 A 69.1 69.1 0 0 0 126.5 48.2 Q 126.5 54.3 128.15 59.1 Q 129.8 63.9 132.4 67.25 A 23.664 23.664 0 0 0 134.742 69.865 Q 136.291 71.344 137.95 72.3 Q 140.681 73.874 143.198 73.991 A 8.673 8.673 0 0 0 143.6 74 Z M 18 9.7 L 17.2 46.2 Q 23.838 44.905 28.544 42.495 A 27.571 27.571 0 0 0 30.65 41.3 Q 35.889 38.007 38.788 33.918 A 21.135 21.135 0 0 0 38.8 33.9 A 31.454 31.454 0 0 0 41.231 29.888 A 23.617 23.617 0 0 0 42.85 25.8 Q 44 21.8 44 18.9 A 8.228 8.228 0 0 0 41.665 13.146 A 12.25 12.25 0 0 0 40.25 11.85 A 10.845 10.845 0 0 0 37.235 10.232 Q 34.24 9.141 29.685 8.943 A 48.262 48.262 0 0 0 27.6 8.9 A 67.053 67.053 0 0 0 24.858 8.959 A 82.064 82.064 0 0 0 23.1 9.05 A 39.647 39.647 0 0 0 19.983 9.374 A 48.379 48.379 0 0 0 18 9.7 Z M 217.5 62.8 L 216.2 30.3 A 56.448 56.448 0 0 0 209.014 33.155 Q 202.363 36.382 198.6 40.85 Q 193 47.5 193 56.2 Q 193 62 195.3 64.3 A 7.362 7.362 0 0 0 198.417 66.12 Q 199.584 66.476 200.992 66.568 A 15.479 15.479 0 0 0 202 66.6 A 31.872 31.872 0 0 0 208.398 65.973 A 28.974 28.974 0 0 0 209.8 65.65 A 39.317 39.317 0 0 0 214.421 64.139 A 49.17 49.17 0 0 0 217.5 62.8 Z M 710.6 56.9 L 736.6 45.4 Q 736.1 41.5 734.3 38 A 17.74 17.74 0 0 0 731.819 34.33 A 15.158 15.158 0 0 0 729.7 32.35 Q 726.9 30.2 723.5 30.2 A 14.13 14.13 0 0 0 719.992 30.617 A 11.203 11.203 0 0 0 716.6 32.1 A 8.117 8.117 0 0 0 714.533 34.111 Q 713.075 36.09 712.1 39.35 Q 710.681 44.095 710.52 52.734 A 122.089 122.089 0 0 0 710.5 55 L 710.5 55.95 A 4.546 4.546 0 0 0 710.543 56.562 A 5.501 5.501 0 0 0 710.6 56.9 Z M 904.7 56.9 L 930.7 45.4 Q 930.2 41.5 928.4 38 A 17.74 17.74 0 0 0 925.919 34.33 A 15.158 15.158 0 0 0 923.8 32.35 Q 921 30.2 917.6 30.2 A 14.13 14.13 0 0 0 914.092 30.617 A 11.203 11.203 0 0 0 910.7 32.1 A 8.117 8.117 0 0 0 908.633 34.111 Q 907.175 36.09 906.2 39.35 Q 904.781 44.095 904.62 52.734 A 122.089 122.089 0 0 0 904.6 55 L 904.6 55.95 A 4.546 4.546 0 0 0 904.643 56.562 A 5.501 5.501 0 0 0 904.7 56.9 Z M 323.7 67.4 L 323.1 49.9 Q 321.459 51.318 319.01 52.874 A 60.767 60.767 0 0 1 317.25 53.95 Q 313.6 56.1 310.2 58.55 A 19.728 19.728 0 0 0 307.57 60.799 A 14.19 14.19 0 0 0 305.2 64 Q 304.236 65.928 303.936 67.525 A 7.449 7.449 0 0 0 303.8 68.9 A 5.242 5.242 0 0 0 304.035 70.503 A 4.314 4.314 0 0 0 305.05 72.2 Q 306.24 73.438 308.382 73.497 A 7.877 7.877 0 0 0 308.6 73.5 A 11.163 11.163 0 0 0 309.361 73.473 A 12.957 12.957 0 0 0 309.65 73.45 Q 310.2 73.4 310.7 73.3 A 44.697 44.697 0 0 0 312.291 72.869 Q 313.694 72.463 315.35 71.9 A 37.685 37.685 0 0 0 320.055 69.949 A 34.659 34.659 0 0 0 320.35 69.8 Q 322.7 68.6 323.7 67.4 Z M 571.8 67.4 L 571.2 49.9 Q 569.559 51.318 567.11 52.874 A 60.767 60.767 0 0 1 565.35 53.95 Q 561.7 56.1 558.3 58.55 A 19.728 19.728 0 0 0 555.67 60.799 A 14.19 14.19 0 0 0 553.3 64 Q 552.336 65.928 552.036 67.525 A 7.449 7.449 0 0 0 551.9 68.9 A 5.242 5.242 0 0 0 552.135 70.503 A 4.314 4.314 0 0 0 553.15 72.2 Q 554.34 73.438 556.482 73.497 A 7.877 7.877 0 0 0 556.7 73.5 A 11.163 11.163 0 0 0 557.461 73.473 A 12.957 12.957 0 0 0 557.75 73.45 Q 558.3 73.4 558.8 73.3 A 44.697 44.697 0 0 0 560.391 72.869 Q 561.794 72.463 563.45 71.9 A 37.685 37.685 0 0 0 568.155 69.949 A 34.659 34.659 0 0 0 568.45 69.8 Q 570.8 68.6 571.8 67.4 Z M 988.5 67.4 L 987.9 49.9 Q 986.259 51.318 983.81 52.874 A 60.767 60.767 0 0 1 982.05 53.95 Q 978.4 56.1 975 58.55 A 19.728 19.728 0 0 0 972.37 60.799 A 14.19 14.19 0 0 0 970 64 Q 969.036 65.928 968.736 67.525 A 7.449 7.449 0 0 0 968.6 68.9 A 5.242 5.242 0 0 0 968.835 70.503 A 4.314 4.314 0 0 0 969.85 72.2 Q 971.04 73.438 973.182 73.497 A 7.877 7.877 0 0 0 973.4 73.5 A 11.163 11.163 0 0 0 974.161 73.473 A 12.957 12.957 0 0 0 974.45 73.45 Q 975 73.4 975.5 73.3 A 44.697 44.697 0 0 0 977.091 72.869 Q 978.494 72.463 980.15 71.9 A 37.685 37.685 0 0 0 984.855 69.949 A 34.659 34.659 0 0 0 985.15 69.8 Q 987.5 68.6 988.5 67.4 Z" vector-effect="non-scaling-stroke"/></g></svg>